<svg xmlns="http://www.w3.org/2000/svg" xml:space="preserve" style="enable-background:new 0 0 50 50" viewBox="0 0 50 50" fill="#ddb53c">
	<path d="M9.045 30H9v.106L1.132 48.868 35.76 34.346 15.654 14.24 9.045 30zM21 38.367l-4 1.677v-21.63l4 4v15.953zm2-13.953 4 4v7.437l-4 1.677V24.414zm-8 16.469-4 1.677V30.509l4-9.539v19.913zm-6-5.605v8.121l-4.132 1.733L9 35.278zm20-.266v-4.598l3.24 3.24L29 35.012zM27 9c-2.206 0-4 1.794-4 4s1.794 4 4 4 4-1.794 4-4-1.794-4-4-4zm0 6c-1.103 0-2-.897-2-2s.897-2 2-2 2 .897 2 2-.897 2-2 2zM45 1c-2.206 0-4 1.794-4 4s1.794 4 4 4 4-1.794 4-4-1.794-4-4-4zm0 6c-1.103 0-2-.897-2-2s.897-2 2-2 2 .897 2 2-.897 2-2 2zM40 17c-2.206 0-4 1.794-4 4s1.794 4 4 4 4-1.794 4-4-1.794-4-4-4zm0 6c-1.103 0-2-.897-2-2s.897-2 2-2 2 .897 2 2-.897 2-2 2zM35.808 30.674l1.414 1.414c2.776-2.776 7.295-2.776 10.071 0l1.414-1.414c-3.557-3.557-9.343-3.557-12.899 0zM18.707 14.707a7.008 7.008 0 0 0 0-9.899l-1.414 1.414a5.006 5.006 0 0 1 0 7.071l1.414 1.414zM35.707 14.465c3.698-3.699 3.698-9.716 0-13.415l-1.414 1.414c2.918 2.919 2.918 7.668 0 10.587l1.414 1.414zM28 20h2v2h-2zM44 12h2v2h-2zM24 3h2v2h-2z"/>
</svg>