<svg xmlns="http://www.w3.org/2000/svg" width="60" height="60">
    <g fill="none" fill-rule="evenodd">
        <g stroke="#ddb53c" stroke-linecap="round" stroke-linejoin="round" stroke-width="2">
            <path d="M23.133 7.932c-2.578.99-3.545 4.718-2.16 8.327C22.357 19.864 28 22.5 28 22.5s5.925-2.636 7.31-6.24c1.385-3.61.418-7.338-2.16-8.328-1.623-.623-3.497-.012-5.009 1.426 0 0-3.386-2.049-5.008-1.426ZM31.924 53.815A15.926 15.926 0 0 0 40 56c8.837 0 16-7.163 16-16s-7.163-16-16-16-16 7.163-16 16c0 3.229.957 6.235 2.602 8.749"/>
            <path d="M25.165 27.148A14.454 14.454 0 0 0 19.5 26C11.492 26 5 32.492 5 40.5S11.492 55 19.5 55 34 48.508 34 40.5c0-3.32-1.116-6.38-2.994-8.825"/>
        </g>
    </g>
</svg>